<svg width="36" height="36" viewBox="0 0 36 36" fill="none" xmlns="http://www.w3.org/2000/svg">
<path d="M36 18C36 27.9411 27.9411 36 18 36C8.05888 36 0 27.9411 0 18C0 8.05888 8.05888 0 18 0C27.9411 0 36 8.05888 36 18Z" fill="white"/>
<path d="M22.5344 19.2455H19.5021V28.3018H15.4592V19.2455H12.1439V15.526H15.4592V12.6555C15.4592 9.42112 17.3998 7.60178 20.3511 7.60178C21.7662 7.60178 23.2621 7.88479 23.2621 7.88479V11.0787H21.6045C19.9873 11.0787 19.5021 12.049 19.5021 13.1002V15.526H23.1004L22.5344 19.2455Z" fill="#009AAE"/>
</svg>
