<svg width="36" height="36" viewBox="0 0 36 36" fill="none" xmlns="http://www.w3.org/2000/svg">
<path d="M36 18C36 27.9411 27.9411 36 18 36C8.05888 36 0 27.9411 0 18C0 8.05888 8.05888 0 18 0C27.9411 0 36 8.05888 36 18Z" fill="white"/>
<path d="M23.2732 11.8065V16.2537H21.6965V11.8065H23.2732ZM18.9877 11.766V16.2133H17.4109V11.766H18.9877ZM12.3168 7.60178H27.1545V17.9518L20.1197 24.6227H17.0066L13.1254 28.3018V24.6227H8.43555V11.3213L12.3168 7.60178ZM25.6182 17.224V9.09768H13.1254V20.1754H16.6428V22.7629L19.3516 20.1754H22.4646L25.6182 17.224Z" fill="#009AAE"/>
</svg>
