<svg width="36" height="36" viewBox="0 0 36 36" fill="none" xmlns="http://www.w3.org/2000/svg">
<path d="M36 18C36 27.9411 27.9411 36 18 36C8.05888 36 0 27.9411 0 18C0 8.05888 8.05888 0 18 0C27.9411 0 36 8.05888 36 18Z" fill="white"/>
<path d="M17.7912 13.3025C20.3383 13.3025 22.4406 15.4048 22.4406 17.9519C22.4406 20.5394 20.3383 22.6013 17.7912 22.6013C15.2037 22.6013 13.1418 20.5394 13.1418 17.9519C13.1418 15.4048 15.2037 13.3025 17.7912 13.3025ZM17.7912 20.9841C19.4488 20.9841 20.783 19.65 20.783 17.9519C20.783 16.2943 19.4488 14.9601 17.7912 14.9601C16.0931 14.9601 14.759 16.2943 14.759 17.9519C14.759 19.65 16.1336 20.9841 17.7912 20.9841ZM23.6939 13.1408C23.6939 12.5343 23.2088 12.0492 22.6023 12.0492C21.9959 12.0492 21.5107 12.5343 21.5107 13.1408C21.5107 13.7472 21.9959 14.2324 22.6023 14.2324C23.2088 14.2324 23.6939 13.7472 23.6939 13.1408ZM26.7666 14.2324C26.8474 15.7283 26.8474 20.216 26.7666 21.7119C26.6857 23.1673 26.3623 24.4207 25.3111 25.5123C24.2599 26.5634 22.9662 26.8869 21.5107 26.9677C20.0148 27.0486 15.5271 27.0486 14.0312 26.9677C12.5758 26.8869 11.3224 26.5634 10.2308 25.5123C9.17966 24.4207 8.85623 23.1673 8.77537 21.7119C8.69451 20.216 8.69451 15.7283 8.77537 14.2324C8.85623 12.7769 9.17966 11.4832 10.2308 10.432C11.3224 9.38082 12.5758 9.05738 14.0312 8.97652C15.5271 8.89566 20.0148 8.89566 21.5107 8.97652C22.9662 9.05738 24.2599 9.38082 25.3111 10.432C26.3623 11.4832 26.6857 12.7769 26.7666 14.2324ZM24.826 23.2886C25.3111 22.1162 25.1898 19.2861 25.1898 17.9519C25.1898 16.6582 25.3111 13.8281 24.826 12.6152C24.5025 11.847 23.8961 11.2002 23.1279 10.9171C21.915 10.432 19.0849 10.5533 17.7912 10.5533C16.457 10.5533 13.6269 10.432 12.4545 10.9171C11.6459 11.2406 11.0394 11.847 10.716 12.6152C10.2308 13.8281 10.3521 16.6582 10.3521 17.9519C10.3521 19.2861 10.2308 22.1162 10.716 23.2886C11.0394 24.0972 11.6459 24.7037 12.4545 25.0271C13.6269 25.5123 16.457 25.391 17.7912 25.391C19.0849 25.391 21.915 25.5123 23.1279 25.0271C23.8961 24.7037 24.5429 24.0972 24.826 23.2886Z" fill="#009AAE"/>
</svg>
