<svg width="36" height="36" viewBox="0 0 36 36" fill="none" xmlns="http://www.w3.org/2000/svg">
<circle cx="18" cy="18" r="18" fill="white"/>
<path d="M28.7981 12.6009C29.3095 14.3917 29.3095 18.2291 29.3095 18.2291C29.3095 18.2291 29.3095 22.0238 28.7981 23.8572C28.5425 24.8805 27.7328 25.648 26.7527 25.9038C24.9203 26.3729 17.6761 26.3729 17.6761 26.3729C17.6761 26.3729 10.3892 26.3729 8.5568 25.9038C7.57669 25.648 6.76704 24.8805 6.51136 23.8572C6 22.0238 6 18.2291 6 18.2291C6 18.2291 6 14.3917 6.51136 12.6009C6.76704 11.5776 7.57669 10.7675 8.5568 10.5117C10.3892 10 17.6761 10 17.6761 10C17.6761 10 24.9203 10 26.7527 10.5117C27.7328 10.7675 28.5425 11.5776 28.7981 12.6009ZM15.2897 21.6827L21.3408 18.2291L15.2897 14.7754V21.6827Z" fill="#009AAE"/>
</svg>
