<svg width="36" height="36" viewBox="0 0 36 36" fill="none" xmlns="http://www.w3.org/2000/svg">
<path d="M36 18C36 27.9411 27.9411 36 18 36C8.05888 36 0 27.9411 0 18C0 8.05888 8.05888 0 18 0C27.9411 0 36 8.05888 36 18Z" fill="white"/>
<path d="M24.6163 12.6168C24.6849 12.4112 24.6849 12.2055 24.6163 11.9313C24.6163 11.7942 24.4792 11.5885 24.4106 11.5199C24.205 11.3143 23.8622 11.3143 23.7251 11.3143C23.1081 11.3143 22.0798 11.6571 17.3495 13.6451C15.7042 14.3307 12.4136 15.7018 7.47764 17.8955C6.65498 18.2383 6.24365 18.5125 6.1751 18.8553C6.10654 19.4037 6.99775 19.6094 8.02607 19.9522C8.91728 20.2264 10.0827 20.5692 10.6997 20.5692C11.2481 20.5692 11.8651 20.3635 12.5507 19.8836C17.1438 16.7301 19.5433 15.1533 19.6804 15.1533C19.8175 15.1533 19.9546 15.0848 20.0231 15.1533C20.1603 15.2905 20.1603 15.4276 20.0917 15.4961C20.0231 15.8389 15.7042 19.8151 15.43 20.0893C14.4702 21.0491 13.3733 21.666 15.0872 22.7629C16.5269 23.7227 17.3495 24.3397 18.8577 25.2994C19.8175 25.9164 20.5716 26.6705 21.5313 26.602C22.0112 26.5334 22.4911 26.1221 22.6968 24.8196C23.3138 21.8717 24.4106 15.2905 24.6163 12.6168Z" fill="#009AAE"/>
</svg>
