<svg width="36" height="36" viewBox="0 0 36 36" fill="none" xmlns="http://www.w3.org/2000/svg">
<path d="M36 18C36 27.9411 27.9411 36 18 36C8.05888 36 0 27.9411 0 18C0 8.05888 8.05888 0 18 0C27.9411 0 36 8.05888 36 18Z" fill="white"/>
<path d="M26.8474 16.092C25.028 16.1324 23.33 15.5664 21.8745 14.5153V21.7522C21.8745 26.8059 16.3761 29.9594 12.0097 27.4528C7.64326 24.9057 7.64326 18.5987 12.0097 16.0516C13.263 15.3239 14.7589 15.0408 16.2144 15.243V18.8817C13.9907 18.1539 11.8479 20.135 12.3331 22.399C12.8587 24.6631 15.6079 25.5526 17.3464 23.9758C17.9528 23.4098 18.3167 22.6012 18.3167 21.7522V7.60178H21.8745C21.8745 7.92522 21.8745 8.20823 21.9554 8.53167C22.1979 9.86585 22.9661 11.0383 24.1386 11.766C24.9067 12.2916 25.8771 12.5746 26.8474 12.5746V16.092Z" fill="#009AAE"/>
</svg>
