<svg width="36" height="36" viewBox="0 0 36 36" fill="none" xmlns="http://www.w3.org/2000/svg">
<path d="M36 18C36 27.9411 27.9411 36 18 36C8.05888 36 0 27.9411 0 18C0 8.05888 8.05888 0 18 0C27.9411 0 36 8.05888 36 18Z" fill="white"/>
<path d="M16.2276 19.6358C15.3864 20.5915 14.5572 21.5334 13.728 22.476C12.5198 23.8489 11.3095 25.2199 10.1072 26.5981C9.95586 26.7717 9.80182 26.847 9.56606 26.8358C9.15548 26.8162 8.74357 26.8306 8.22852 26.8306C10.6765 24.0487 13.071 21.3278 15.4922 18.5767C13.0864 15.1515 10.6779 11.7251 8.23789 8.25348C8.41002 8.24431 8.51652 8.23448 8.62301 8.23448C10.2412 8.23383 11.8594 8.23907 13.4775 8.22859C13.7073 8.22728 13.8339 8.3026 13.9604 8.4847C15.375 10.5113 16.7996 12.5314 18.2222 14.5528C18.3354 14.714 18.452 14.8731 18.5852 15.0585C19.0936 14.4834 19.5892 13.9253 20.0822 13.3646C21.5235 11.7271 22.9602 10.0856 24.4116 8.45653C24.5174 8.33797 24.7217 8.25741 24.8871 8.24562C25.3064 8.21614 25.7291 8.23579 26.2582 8.23579C23.9153 10.8991 21.6307 13.4963 19.326 16.1164C21.8223 19.6679 24.3145 23.2149 26.8369 26.8037C26.7016 26.8155 26.6105 26.83 26.5187 26.83C24.8778 26.8306 23.2375 26.8247 21.5965 26.8358C21.3628 26.8372 21.2382 26.752 21.1136 26.5745C19.5571 24.3513 17.9932 22.1334 16.4306 19.9142C16.369 19.8264 16.304 19.7413 16.227 19.6358H16.2276ZM10.5111 9.47051C10.6163 9.6251 10.6759 9.7168 10.7395 9.80523C12.7334 12.5937 14.728 15.3814 16.7226 18.1699C18.4546 20.5915 20.1853 23.0144 21.9214 25.4341C21.9857 25.5238 22.0929 25.6463 22.1826 25.6483C22.9569 25.6653 23.7311 25.6581 24.559 25.6581C24.4505 25.497 24.3808 25.3889 24.3058 25.2841C23.3346 23.9256 22.3628 22.5677 21.3909 21.2092C18.6361 17.3577 15.882 13.5048 13.1232 9.65588C13.0663 9.57597 12.9591 9.47968 12.8734 9.47837C12.1072 9.46462 11.341 9.47051 10.5118 9.47051H10.5111Z" fill="#009AAE"/>
</svg>
